<svg width="39" height="40" viewBox="0 0 39 40" fill="none" xmlns="http://www.w3.org/2000/svg">
<path d="M20.3439 39.3866L37.8291 19.3412C37.9625 19.1874 38.0371 18.991 38.0371 18.7841L38.0371 14.0885C38.0371 13.6958 37.5465 13.5154 37.2906 13.8126L21.0798 32.3935L21.0798 1.3439C21.0798 1.11044 20.8878 0.919433 20.6532 0.919433L17.4537 0.919433C17.219 0.919433 17.0271 1.11044 17.0271 1.3439L17.0271 32.3882L0.816257 13.8073C0.554965 13.5101 0.0697092 13.6905 0.0697092 14.0832L0.069709 18.938C0.069709 19.0388 0.107036 19.1396 0.176356 19.2139L17.7629 39.3866C17.9235 39.5703 18.1217 39.7175 18.3444 39.8185C18.567 39.9194 18.8088 39.9716 19.0534 39.9716C19.298 39.9716 19.5398 39.9194 19.7625 39.8185C19.9851 39.7175 20.1833 39.5703 20.3439 39.3866Z" fill="url(#paint0_linear_1_281)"/>
<defs>
<linearGradient id="paint0_linear_1_281" x1="19.2935" y1="10.1889" x2="-2.23139" y2="46.7159" gradientUnits="userSpaceOnUse">
<stop stop-color="white"/>
<stop offset="1" stop-color="white" stop-opacity="0.78"/>
</linearGradient>
</defs>
</svg>
