<svg width="1280" height="105" viewBox="0 0 1280 105" fill="none" xmlns="http://www.w3.org/2000/svg">
<path fill-rule="evenodd" clip-rule="evenodd" d="M563.131 81.0949L587.452 17.4859L546.56 53.7791L525.714 19.4136L504.537 54.3234L463.975 19.4136L488.296 81.0955L488.296 81.0949L488.296 81.0953H510.747L525.714 61.269L540.68 81.0953L563.13 81.0953L563.131 81.0953L563.131 81.0949Z" fill="white"/>
<path d="M488.296 81.0944L525.713 2.51807L563.131 81.0944H540.68L525.713 55.8377L510.746 81.0944H488.296Z" fill="#45C1D4"/>
<path d="M488.296 81.0947L525.713 21.2271L563.131 81.0947H540.68L525.713 61.8516L510.746 81.0947H488.296Z" fill="#45C1D4"/>
<path d="M642.87 65.3262C642.455 67.5237 641.653 69.5727 640.465 71.4732C639.337 73.3738 637.941 75.007 636.278 76.373C634.615 77.739 632.714 78.8378 630.576 79.6693C628.498 80.4414 626.3 80.8274 623.984 80.8274H599.574C596.901 80.8274 594.407 80.3226 592.09 79.3129C589.774 78.3033 587.725 76.9372 585.943 75.2149C584.221 73.4331 582.855 71.3841 581.845 69.0679C580.836 66.6922 580.331 64.168 580.331 61.4954V53.1212C580.331 50.4486 580.836 47.9541 581.845 45.6379C582.855 43.3216 584.221 41.3023 585.943 39.5799C587.725 37.7982 589.774 36.4025 592.09 35.3928C594.407 34.3832 596.901 33.8783 599.574 33.8783H623.984C626.775 33.8783 629.329 34.4129 631.645 35.4819C634.021 36.4916 636.07 37.917 637.792 39.7581C639.515 41.5398 640.851 43.6482 641.801 46.0833C642.752 48.459 643.227 51.0128 643.227 53.7448L643.316 60.4264H591.2V60.9609C591.2 63.0396 591.526 64.7026 592.18 65.9498C592.833 67.197 593.753 68.177 594.941 68.8897C596.189 69.543 597.703 69.9884 599.485 70.226C601.266 70.4636 603.286 70.5823 605.543 70.5823H618.015C621.578 70.5823 624.518 70.2557 626.835 69.6024C629.21 68.9491 630.844 67.5237 631.734 65.3262H642.87ZM632.269 51.6067C632.031 50.0625 631.527 48.8153 630.754 47.8651C630.042 46.8554 629.062 46.0833 627.815 45.5488C626.627 44.9549 625.201 44.5688 623.538 44.3906C621.935 44.1531 620.094 44.0343 618.015 44.0343H605.543C603.523 44.0343 601.682 44.1234 600.019 44.3016C598.356 44.4797 596.901 44.8658 595.654 45.4597C594.466 45.9942 593.486 46.7663 592.714 47.776C592.001 48.7262 591.526 50.0031 591.289 51.6067H632.269ZM657.504 37.8873C659.108 36.64 660.89 35.6601 662.85 34.9474C664.869 34.2347 667.007 33.8783 669.264 33.8783H690.378C693.05 33.8783 695.545 34.3832 697.861 35.3928C700.177 36.4025 702.197 37.7982 703.919 39.5799C705.701 41.3023 707.096 43.3216 708.106 45.6379C709.116 47.9541 709.62 50.4486 709.62 53.1212V61.4954C709.62 64.168 709.116 66.6922 708.106 69.0679C707.096 71.3841 705.701 73.4331 703.919 75.2149C702.197 76.9372 700.177 78.3033 697.861 79.3129C695.545 80.3226 693.05 80.8274 690.378 80.8274H669.264C667.007 80.8274 664.869 80.471 662.85 79.7583C660.89 79.0456 659.108 78.0657 657.504 76.8185V79.9365H646.636V17.5753H657.504V37.8873ZM657.504 60.9609C657.504 64.465 658.87 66.9595 661.602 68.4442C664.394 69.8696 668.046 70.5823 672.56 70.5823H683.607C688.18 70.5823 691.833 69.8696 694.565 68.4442C697.356 66.9595 698.752 64.465 698.752 60.9609V53.7448C698.752 50.1813 697.356 47.6869 694.565 46.2615C691.833 44.7767 688.18 44.0343 683.607 44.0343H672.56C668.046 44.0343 664.394 44.7767 661.602 46.2615C658.87 47.6869 657.504 50.1813 657.504 53.7448V60.9609Z" fill="white"/>
<path d="M721.561 8.65346V12.4293C721.561 13.0917 721.436 13.7173 721.186 14.3061C720.936 14.8802 720.59 15.3881 720.148 15.8297C719.721 16.2566 719.213 16.5952 718.625 16.8454C718.05 17.0957 717.432 17.2208 716.77 17.2208H708.799C708.136 17.2208 707.511 17.0957 706.922 16.8454C706.348 16.5952 705.84 16.2566 705.398 15.8297C704.971 15.3881 704.633 14.8802 704.382 14.3061C704.132 13.7173 704.007 13.0917 704.007 12.4293V6.09209C704.007 5.42966 704.132 4.8114 704.382 4.2373C704.633 3.6632 704.971 3.1627 705.398 2.73581C705.84 2.29419 706.348 1.94826 706.922 1.69801C707.511 1.44776 708.136 1.32264 708.799 1.32264H716.77C717.432 1.32264 718.05 1.44776 718.625 1.69801C719.213 1.94826 719.721 2.29419 720.148 2.73581C720.59 3.17742 720.936 3.69264 721.186 4.28146C721.436 4.87028 721.561 5.51063 721.561 6.20249H720.06C720.045 5.71672 719.942 5.26038 719.751 4.83348C719.574 4.40659 719.324 4.03857 719 3.72944C718.691 3.42031 718.323 3.17742 717.896 3.00078C717.469 2.80941 717.005 2.71373 716.505 2.71373H709.041C708.482 2.71373 707.982 2.82413 707.54 3.04494C707.098 3.25103 706.723 3.53808 706.414 3.90609C706.119 4.2741 705.891 4.70836 705.729 5.20886C705.567 5.70936 705.486 6.23929 705.486 6.79867V11.7448C705.486 12.3042 705.567 12.8341 705.729 13.3346C705.891 13.8204 706.119 14.2473 706.414 14.6153C706.723 14.9833 707.098 15.2777 707.54 15.4985C707.982 15.7046 708.482 15.8076 709.041 15.8076H716.505C717.064 15.8076 717.565 15.7046 718.006 15.4985C718.448 15.2777 718.823 14.9833 719.132 14.6153C719.442 14.2473 719.677 13.8204 719.839 13.3346C720.001 12.8341 720.082 12.3042 720.082 11.7448V10.0666H712V8.65346H721.561ZM741.094 8.65346V12.4293C741.094 13.0917 740.969 13.7173 740.719 14.3061C740.469 14.8802 740.123 15.3881 739.681 15.8297C739.254 16.2566 738.746 16.5952 738.157 16.8454C737.583 17.0957 736.965 17.2208 736.303 17.2208H728.331C727.669 17.2208 727.043 17.0957 726.455 16.8454C725.88 16.5952 725.373 16.2566 724.931 15.8297C724.504 15.3881 724.166 14.8802 723.915 14.3061C723.665 13.7173 723.54 13.0917 723.54 12.4293V6.09209C723.54 5.42966 723.665 4.8114 723.915 4.2373C724.166 3.6632 724.504 3.1627 724.931 2.73581C725.373 2.29419 725.88 1.94826 726.455 1.69801C727.043 1.44776 727.669 1.32264 728.331 1.32264H736.303C736.965 1.32264 737.583 1.44776 738.157 1.69801C738.746 1.94826 739.254 2.29419 739.681 2.73581C740.123 3.17742 740.469 3.69264 740.719 4.28146C740.969 4.87028 741.094 5.51063 741.094 6.20249H739.593C739.578 5.71672 739.475 5.26038 739.284 4.83348C739.107 4.40659 738.857 4.03857 738.533 3.72944C738.224 3.42031 737.856 3.17742 737.429 3.00078C737.002 2.80941 736.538 2.71373 736.038 2.71373H728.574C728.015 2.71373 727.514 2.82413 727.073 3.04494C726.631 3.25103 726.256 3.53808 725.947 3.90609C725.652 4.2741 725.424 4.70836 725.262 5.20886C725.1 5.70936 725.019 6.23929 725.019 6.79867V11.7448C725.019 12.3042 725.1 12.8341 725.262 13.3346C725.424 13.8204 725.652 14.2473 725.947 14.6153C726.256 14.9833 726.631 15.2777 727.073 15.4985C727.514 15.7046 728.015 15.8076 728.574 15.8076H736.038C736.597 15.8076 737.098 15.7046 737.539 15.4985C737.981 15.2777 738.356 14.9833 738.665 14.6153C738.974 14.2473 739.21 13.8204 739.372 13.3346C739.534 12.8341 739.615 12.3042 739.615 11.7448V10.0666H731.533V8.65346H741.094Z" fill="white"/>
</svg>
