<svg width="130" height="64" viewBox="0 0 130 64" fill="none" xmlns="http://www.w3.org/2000/svg">
<path d="M62.8703 48.3262C62.4546 50.5237 61.6528 52.5727 60.465 54.4732C59.3365 56.3738 57.9408 58.007 56.2779 59.373C54.6149 60.739 52.7144 61.8378 50.5763 62.6693C48.4975 63.4414 46.3001 63.8274 43.9838 63.8274H19.5738C16.9012 63.8274 14.4068 63.3226 12.0905 62.3129C9.77422 61.3033 7.72521 59.9372 5.94346 58.2149C4.2211 56.4331 2.85509 54.3841 1.84544 52.0679C0.835779 49.6922 0.33095 47.168 0.33095 44.4954V36.1212C0.33095 33.4486 0.835779 30.9541 1.84544 28.6379C2.85509 26.3216 4.2211 24.3023 5.94346 22.5799C7.72521 20.7982 9.77422 19.4025 12.0905 18.3928C14.4068 17.3832 16.9012 16.8783 19.5738 16.8783H43.9838C46.7752 16.8783 49.329 17.4129 51.6453 18.4819C54.021 19.4916 56.07 20.917 57.7923 22.7581C59.5147 24.5398 60.851 26.6482 61.8013 29.0833C62.7515 31.459 63.2267 34.0128 63.2267 36.7448L63.3158 43.4264H11.1996V43.9609C11.1996 46.0396 11.5263 47.7026 12.1796 48.9498C12.8329 50.197 13.7535 51.177 14.9413 51.8897C16.1885 52.543 17.703 52.9884 19.4847 53.226C21.2665 53.4636 23.2858 53.5823 25.5427 53.5823H38.0149C41.5784 53.5823 44.5183 53.2557 46.8346 52.6024C49.2102 51.9491 50.8435 50.5237 51.7344 48.3262H62.8703ZM52.2689 34.6067C52.0314 33.0625 51.5265 31.8153 50.7544 30.8651C50.0417 29.8554 49.0618 29.0833 47.8145 28.5488C46.6267 27.9549 45.2013 27.5688 43.5384 27.3906C41.9348 27.1531 40.0936 27.0343 38.0149 27.0343H25.5427C23.5234 27.0343 21.6822 27.1234 20.0193 27.3016C18.3563 27.4797 16.9012 27.8658 15.654 28.4597C14.4662 28.9942 13.4862 29.7663 12.7141 30.776C12.0014 31.7262 11.5263 33.0031 11.2887 34.6067H52.2689ZM77.5043 20.8873C79.1079 19.64 80.8896 18.6601 82.8496 17.9474C84.8689 17.2347 87.007 16.8783 89.2639 16.8783H110.378C113.05 16.8783 115.545 17.3832 117.861 18.3928C120.177 19.4025 122.197 20.7982 123.919 22.5799C125.701 24.3023 127.096 26.3216 128.106 28.6379C129.116 30.9541 129.62 33.4486 129.62 36.1212V44.4954C129.62 47.168 129.116 49.6922 128.106 52.0679C127.096 54.3841 125.701 56.4331 123.919 58.2149C122.197 59.9372 120.177 61.3033 117.861 62.3129C115.545 63.3226 113.05 63.8274 110.378 63.8274H89.2639C87.007 63.8274 84.8689 63.471 82.8496 62.7583C80.8896 62.0456 79.1079 61.0657 77.5043 59.8185V62.9365H66.6357V0.575327H77.5043V20.8873ZM77.5043 43.9609C77.5043 47.465 78.8703 49.9595 81.6023 51.4442C84.3937 52.8696 88.0463 53.5823 92.5601 53.5823H103.607C108.18 53.5823 111.833 52.8696 114.565 51.4442C117.356 49.9595 118.752 47.465 118.752 43.9609V36.7448C118.752 33.1813 117.356 30.6869 114.565 29.2615C111.833 27.7767 108.18 27.0343 103.607 27.0343H92.5601C88.0463 27.0343 84.3937 27.7767 81.6023 29.2615C78.8703 30.6869 77.5043 33.1813 77.5043 36.7448V43.9609Z" fill="white"/>
</svg>
